# xmcd CD database file
#
# Track frame offsets:
#	150
#	13698
#	23559
#	34650
#	45291
#	54777
#	62148
#	70815
#	78932
#	100458
#	115901
#	132779
#	145775
#	156593
#
# Disc length: 2306 seconds
#
# Revision: 0
# Processed by: cddbd v1.5.2PL0 Copyright (c) Steve Scherf et al.
# Submitted via: CDex 1.70beta2
#
DISCID=af09000e
DTITLE=Various Artist - High Flyin' Jazz
DYEAR=1998
DGENRE=Jazz
TTITLE0=Lionel Hampton and His Orchestra - McGee
TTITLE1=The Four Hoursemen - It's Only a Paper Moon
TTITLE2=Les Brown and His Band of Renown - My Baby Just Care For Me
TTITLE3=Carmen McRae - Day By Day
TTITLE4=Al Hirt - Begin the Bguine
TTITLE5=Julie London - September in the Rain
TTITLE6=Chico Hamilton - My Shining Hour
TTITLE7=June Christy - It Could Happen to You
TTITLE8=Duke Ellington and His Orchestra
TTITLE9=Sarah Vaughan - Out of this World
TTITLE10=Gerry Mulligan - Jive at Five
TTITLE11=Harry James - Don't Be That Way
TTITLE12=Mel Torme - Swingin' on the Moon
TTITLE13=Stan Kenton and His Orchestra - Bernie's Tune
EXTD=YEAR: 1998
EXTT0=
EXTT1=
EXTT2=
EXTT3=
EXTT4=
EXTT5=
EXTT6=
EXTT7=
EXTT8=
EXTT9=
EXTT10=
EXTT11=
EXTT12=
EXTT13=
PLAYORDER=
